<svg width="170" height="75" viewBox="0 0 170 75" fill="none" xmlns="http://www.w3.org/2000/svg">
<path d="M100.057 30.7824V3.22626H64.0802V11.3891C64.1582 14.9339 63.8127 18.4765 63.0486 21.9672C62.1211 25.0643 60.6393 28.0342 58.6506 30.7824H54.6436L49.1597 39.2713H105.313V30.7824H100.057ZM73.2563 22.646C74.1518 19.0634 74.5849 15.4148 74.5485 11.7593H89.556V30.7824H70.2374C71.5257 28.1445 72.5356 25.4226 73.2563 22.646Z" fill="white"/>
<path d="M36.9432 52.0004H17.6138L31.3615 30.7824H50.6801L36.9432 52.0004Z" fill="white"/>
<path d="M41.8296 3.21753H31.3613V27.5826H41.8296V3.21753Z" fill="white"/>
<path d="M27.4087 30.8001H10.4466V3.21753H0V39.2979H21.9139L27.4087 30.8001Z" fill="white"/>
<path d="M155.341 21.218H136.001L149.727 0H169.046L155.341 21.218Z" fill="white"/>
<path d="M141.387 27.3181C140.111 28.741 138.406 29.8742 136.435 30.6093C134.465 31.3444 132.296 31.6568 130.134 31.5168C127.973 31.3767 125.892 30.7887 124.09 29.8092C122.289 28.8296 120.827 27.4912 119.845 25.922C118.863 24.3528 118.393 22.6052 118.481 20.8465C118.568 19.0878 119.21 17.3767 120.345 15.877C121.48 14.3772 123.07 13.139 124.964 12.2807C126.857 11.4225 128.989 10.9728 131.158 10.9749C133.316 10.9754 135.438 11.431 137.315 12.2971L142.039 4.9894C138.71 3.50878 134.975 2.73268 131.179 2.73273C127.282 2.73944 123.452 3.55677 120.055 5.10672C116.658 6.65667 113.806 8.88752 111.773 11.5864C109.74 14.2852 108.592 17.3621 108.441 20.5232C108.289 23.6843 109.137 26.8243 110.906 29.6435C112.674 32.4627 115.303 34.867 118.541 36.627C121.779 38.387 125.519 39.4439 129.404 39.6969C133.288 39.95 137.188 39.3906 140.731 38.0723C144.273 36.754 147.341 34.7207 149.64 32.1665L141.387 27.3181Z" fill="white"/>
<path d="M77.7953 53.217C77.3613 53.8384 76.7286 54.3532 75.9641 54.707C75.1995 55.0608 74.3315 55.2404 73.4516 55.2268C72.0548 55.2268 70.7152 54.7764 69.7275 53.9746C68.7398 53.1728 68.1849 52.0854 68.1849 50.9515C68.1849 49.8176 68.7398 48.7301 69.7275 47.9284C70.7152 47.1266 72.0548 46.6761 73.4516 46.6761C74.3172 46.6652 75.1707 46.8415 75.9246 47.187C76.6784 47.5325 77.3054 48.0347 77.741 48.6419L77.8713 48.8535L79.207 48.2276L79.0658 48.0337C78.4911 47.2434 77.6689 46.5906 76.6829 46.1416C75.6969 45.6926 74.582 45.4634 73.4516 45.4773C72.566 45.4773 71.6891 45.6189 70.8709 45.894C70.0528 46.1691 69.3094 46.5723 68.6832 47.0806C68.057 47.589 67.5602 48.1924 67.2213 48.8566C66.8824 49.5208 66.708 50.2326 66.708 50.9515C66.708 51.6704 66.8824 52.3822 67.2213 53.0464C67.5602 53.7105 68.057 54.314 68.6832 54.8223C69.3094 55.3307 70.0528 55.7339 70.8709 56.009C71.6891 56.2841 72.566 56.4257 73.4516 56.4257C74.5998 56.4361 75.7305 56.1962 76.7256 55.731C77.7207 55.2659 78.5439 54.5925 79.1093 53.7811L79.2504 53.5784L77.9039 52.9613L77.7953 53.217Z" fill="white"/>
<path d="M85.4077 56.2669H86.9388V46.8171H90.8807V45.6271H81.4658V46.8171H85.4077V56.2669Z" fill="white"/>
<path d="M102.978 49.0122C102.988 48.565 102.887 48.1207 102.68 47.7061C102.474 47.2915 102.166 46.9151 101.775 46.5997C101.385 46.2843 100.919 46.0363 100.408 45.8706C99.8957 45.705 99.3479 45.6252 98.7971 45.636H94.2471V56.267H95.7674V52.3884H98.7971C99.3483 52.4004 99.8968 52.3214 100.409 52.1563C100.922 51.9911 101.388 51.7431 101.779 51.4274C102.17 51.1117 102.477 50.7349 102.684 50.3197C102.89 49.9045 102.99 49.4597 102.978 49.0122ZM98.7971 51.1983H95.7674V46.7908H98.7971C99.5171 46.7908 100.208 47.0229 100.717 47.4362C101.226 47.8495 101.512 48.4101 101.512 48.9945C101.512 49.579 101.226 50.1396 100.717 50.5528C100.208 50.9661 99.5171 51.1983 98.7971 51.1983Z" fill="white"/>
<path d="M112.664 56.4257C113.998 56.424 115.3 56.1015 116.408 55.4989C117.516 54.8963 118.378 54.0408 118.887 53.0403C119.396 52.0399 119.528 50.9395 119.266 49.8782C119.005 48.8169 118.362 47.8423 117.418 47.0776C116.475 46.3129 115.273 45.7924 113.965 45.5819C112.657 45.3714 111.302 45.4803 110.07 45.8949C108.839 46.3095 107.786 47.0111 107.046 47.9112C106.305 48.8112 105.91 49.8692 105.91 50.9516C105.901 51.6731 106.07 52.3889 106.407 53.0568C106.743 53.7248 107.24 54.3315 107.87 54.8413C108.499 55.3512 109.247 55.7539 110.07 56.026C110.894 56.2981 111.776 56.434 112.664 56.4257ZM112.664 46.6762C113.707 46.671 114.729 46.9173 115.599 47.3838C116.47 47.8504 117.15 48.5163 117.553 49.297C117.957 50.0778 118.066 50.9382 117.866 51.7693C117.667 52.6004 117.168 53.3646 116.433 53.9652C115.697 54.5658 114.759 54.9756 113.737 55.1427C112.714 55.3098 111.653 55.2267 110.689 54.9039C109.725 54.5811 108.9 54.0332 108.32 53.3295C107.74 52.6259 107.43 51.7983 107.43 50.9516C107.422 50.3904 107.551 49.8334 107.81 49.3133C108.07 48.7931 108.455 48.3202 108.942 47.9221C109.429 47.5241 110.01 47.2088 110.649 46.9949C111.288 46.781 111.973 46.6726 112.664 46.6762Z" fill="white"/>
<path d="M131.44 56.2669H132.949V45.6271H131.679L124.718 53.8692V45.6271H123.198V56.2669H124.457L131.44 48.0248V56.2669Z" fill="white"/>
<path d="M147.718 45.6271L143.407 51.4362L139.172 45.7417L139.085 45.6271H137.467V56.2669H138.976V47.822L143.092 53.3579L143.342 53.4725H143.656L147.848 47.822V56.2669H149.358V45.6271H147.718Z" fill="white"/>
<path d="M42.8725 61.5385H34.576V67.568C34.6982 68.7784 34.2948 69.9852 33.4357 70.9795H32.2847V74.1177H33.8158V72.1695H42.6987V74.1177H44.2299V70.9795H42.905L42.8725 61.5385ZM41.363 62.7197V70.9795H35.2058C35.8556 69.9258 36.1586 68.7536 36.0854 67.5768V62.7197H41.363Z" fill="white"/>
<path d="M49.3006 67.6209C49.3006 70.6974 48.1278 71.05 47.2482 71.05H46.9116H46.5967V72.2048H46.8573H47.3025C49.7024 72.2048 50.8209 70.7591 50.8209 67.6562V62.7373H56.2505V72.1871H57.7817V61.5385H49.2789L49.3006 67.6209Z" fill="white"/>
<path d="M61.7564 64.7736C61.7565 65.4927 62.0525 66.1913 62.5975 66.7582C63.1424 67.3252 63.9051 67.7281 64.7645 67.903L61.1592 72.1695H62.9184L66.4693 67.9999H69.4774V72.1695H70.9325V61.5385H65.7201C64.6668 61.5431 63.6587 61.886 62.916 62.4922C62.1733 63.0984 61.7564 63.9186 61.7564 64.7736ZM65.7201 62.7197H69.4556V66.8099H65.7201C65.0519 66.8099 64.4111 66.5944 63.9386 66.2109C63.4661 65.8274 63.2007 65.3072 63.2007 64.7648C63.2007 64.2224 63.4661 63.7022 63.9386 63.3187C64.4111 62.9351 65.0519 62.7197 65.7201 62.7197Z" fill="white"/>
<path d="M96.0173 61.5297H94.2581L89.1977 65.9196V61.5297H87.6665V65.9196L82.8233 61.609L80.847 61.5297L86.6241 66.7041L80.6841 72.1607H82.5627L87.6665 67.4975V72.1607H89.1977V67.4975L94.3015 72.1607H96.191L90.2402 66.7041L96.0173 61.5297Z" fill="white"/>
<path d="M100.665 69.7718V61.5297H99.1445V72.1607H100.404L107.387 63.9274V72.1607H108.907V61.5297H107.626L100.665 69.7718Z" fill="white"/>
<path d="M119.712 66.6512C120.176 66.4019 120.556 66.0625 120.818 65.6638C121.08 65.2652 121.215 64.8198 121.211 64.3681C121.198 63.9483 121.079 63.5351 120.862 63.1539C120.645 62.7728 120.334 62.4317 119.949 62.1517C119.563 61.8718 119.111 61.6589 118.62 61.5261C118.13 61.3933 117.61 61.3435 117.095 61.3798C116.192 61.3272 115.293 61.5089 114.525 61.8987C113.758 62.2885 113.164 62.8662 112.827 63.5483L112.73 63.7422L114.022 64.3328L114.141 64.086C114.36 63.6044 114.768 63.1944 115.301 62.9189C115.835 62.6434 116.465 62.5177 117.095 62.561C117.416 62.5262 117.742 62.5467 118.052 62.621C118.362 62.6953 118.649 62.8219 118.895 62.9923C119.141 63.1628 119.34 63.3735 119.479 63.6105C119.618 63.8475 119.693 64.1057 119.701 64.3681C119.701 65.4435 118.615 66.1311 117.084 66.1311H115.792V67.3123H117.497C117.828 67.2786 118.165 67.3024 118.484 67.3822C118.803 67.462 119.097 67.5959 119.348 67.7751C119.599 67.9543 119.799 68.1747 119.937 68.4217C120.075 68.6686 120.146 68.9365 120.147 69.2076C120.147 70.3888 119.006 71.1205 117.171 71.1205C114.999 71.1205 114.217 70.1861 113.913 69.4103L113.827 69.1371L112.48 69.7277L112.556 69.9128C112.87 70.6755 113.495 71.3282 114.329 71.7627C115.162 72.1972 116.154 72.3874 117.139 72.3017C119.788 72.3017 121.645 71.0323 121.645 69.2076C121.653 68.6768 121.476 68.1551 121.134 67.7027C120.792 67.2503 120.299 66.8858 119.712 66.6512Z" fill="white"/>
<path d="M133.579 66.1135H126.868V61.5297H125.348V72.1607H126.868V67.2948H133.579V72.1607H135.1V61.5297H133.579V66.1135Z" fill="white"/>
<path d="M141.127 69.7718V61.5297H139.606V72.1607H140.866L147.849 63.9274V72.1607H149.358V61.5297H148.088L141.127 69.7718Z" fill="white"/>
</svg>
